<svg width="35" height="36" viewBox="0 0 35 36" fill="none" xmlns="http://www.w3.org/2000/svg">
<g opacity="0.8">
<path fill-rule="evenodd" clip-rule="evenodd" d="M11.4145 2.27979H28.9826C31.8934 2.27979 34.253 4.91911 34.253 8.17487V27.8252C34.253 31.0809 31.8934 33.7202 28.9826 33.7202H11.4145C8.5037 33.7202 6.14404 31.0809 6.14404 27.8252L6.14404 8.17487C6.14404 4.91911 8.5037 2.27979 11.4145 2.27979Z" fill="#0D6EFD" fill-opacity="0.2"/>
<path fill-rule="evenodd" clip-rule="evenodd" d="M6.51414 2.27979H25.0069C28.0709 2.27979 30.5547 4.91911 30.5547 8.17487V27.8252C30.5547 31.0809 28.0709 33.7202 25.0069 33.7202H6.51414C3.45016 33.7202 0.966308 31.0809 0.966309 27.8252L0.966309 8.17487C0.966308 4.91911 3.45016 2.27979 6.51414 2.27979Z" fill="#0D6EFD"/>
<g opacity="0.7">
<path opacity="0.3" fill-rule="evenodd" clip-rule="evenodd" d="M12.0509 15.1484H11.2927C11.2536 15.1484 11.1956 15.2035 11.1934 15.2398L10.6348 24.3765L21.0716 24.3745L20.5074 15.2398C20.5053 15.2048 20.4459 15.1484 20.4082 15.1484H19.6499V16.6865C19.6499 17.1112 19.3097 17.4555 18.89 17.4555C18.4703 17.4555 18.1301 17.1112 18.1301 16.6865V15.1484H13.5707V16.6865C13.5707 17.1112 13.2305 17.4555 12.8108 17.4555C12.3912 17.4555 12.0509 17.1112 12.0509 16.6865V15.1484Z" fill="white"/>
<path fill-rule="evenodd" clip-rule="evenodd" d="M15.8504 9.76562C17.9477 9.76562 19.6498 11.4884 19.6498 13.6089L20.4081 13.6107C21.2484 13.6107 21.972 14.2986 22.0242 15.1441L22.5947 24.3814C22.647 25.2283 22.0111 25.9148 21.1734 25.9148H10.5274C9.69008 25.9148 9.0538 25.2269 9.10603 24.3814L9.67651 15.1441C9.72881 14.2972 10.451 13.6107 11.2926 13.6107H12.0509C12.0509 11.4873 13.7544 9.76562 15.8504 9.76562ZM18.1301 13.6108C18.1301 12.3379 17.1083 11.3037 15.8504 11.3037C14.5933 11.3037 13.5707 12.3372 13.5707 13.6089L18.1301 13.6108ZM12.0509 15.1486H11.2926C11.2535 15.1486 11.1956 15.2037 11.1933 15.24L10.6347 24.3767L21.0716 24.3747L20.5074 15.24C20.5052 15.205 20.4458 15.1486 20.4081 15.1486H19.6498V16.6867C19.6498 17.1114 19.3096 17.4557 18.89 17.4557C18.4703 17.4557 18.1301 17.1114 18.1301 16.6867V15.1486H13.5707V16.6867C13.5707 17.1114 13.2305 17.4557 12.8108 17.4557C12.3911 17.4557 12.0509 17.1114 12.0509 16.6867V15.1486Z" fill="white"/>
</g>
</g>
</svg>
